<?xml version="1.0" standalone="no"?>
<!DOCTYPE svg PUBLIC "-//W3C//DTD SVG 20010904//EN"
 "http://www.w3.org/TR/2001/REC-SVG-20010904/DTD/svg10.dtd">
<svg version="1.0" xmlns="http://www.w3.org/2000/svg"
 width="1792.000000pt" height="1024.000000pt" viewBox="0 0 1792.000000 1024.000000"
 preserveAspectRatio="xMidYMid meet">

<g transform="translate(0.000000,1024.000000) scale(0.100000,-0.100000)"
fill="#000000" stroke="none">
<path d="M9279 10224 c-14 -17 -219 -164 -679 -489 -162 -114 -369 -260 -460
-324 -91 -65 -275 -194 -410 -288 -135 -95 -326 -229 -425 -299 -200 -141
-242 -170 -430 -301 -71 -49 -204 -143 -295 -207 -336 -239 -583 -412 -880
-620 -168 -117 -333 -232 -366 -257 -429 -308 -623 -446 -1229 -869 -286 -200
-587 -411 -670 -470 -82 -58 -321 -228 -530 -376 -526 -374 -634 -450 -759
-535 -59 -41 -136 -96 -170 -123 l-61 -48 -958 7 -957 7 2 -1518 c3 -1276 5
-1519 17 -1516 7 1 20 -5 27 -15 10 -12 13 -13 12 -4 -2 11 17 15 95 18 62 2
97 0 97 -7 0 -5 9 -10 20 -10 11 0 20 4 20 8 0 4 9 8 19 8 11 0 18 -3 16 -7
-3 -3 10 -6 27 -7 25 -1 29 2 18 10 -12 8 -11 9 3 4 10 -3 24 -6 30 -6 7 0 6
-4 -3 -10 -12 -7 -10 -9 7 -7 12 0 19 5 17 9 -3 4 2 8 10 8 9 0 16 -7 16 -15
0 -8 5 -15 11 -15 6 0 9 6 6 13 -3 8 3 13 14 13 11 0 19 -4 19 -9 0 -4 5 -5
10 -2 6 3 10 1 10 -5 0 -7 7 -10 15 -6 8 3 15 2 15 -2 0 -9 54 -42 67 -42 4 0
0 5 -10 11 -26 15 -21 30 7 19 19 -7 28 -5 41 10 10 11 20 18 24 16 8 -5 76
43 227 159 103 79 270 205 996 755 87 66 206 156 265 202 59 45 254 192 433
327 179 134 393 297 475 361 83 64 330 251 550 416 220 164 470 352 555 419
85 66 247 190 360 275 113 84 258 197 323 249 66 53 135 108 156 124 l36 27
268 -7 267 -6 -22 -24 c-12 -13 -114 -94 -227 -180 -113 -86 -235 -180 -271
-208 -36 -28 -141 -110 -235 -181 -93 -71 -204 -155 -245 -187 -140 -107 -383
-292 -661 -502 -314 -237 -418 -317 -884 -670 -181 -138 -487 -370 -680 -515
-377 -284 -463 -350 -712 -541 -88 -68 -211 -162 -273 -209 -297 -226 -379
-293 -373 -303 4 -6 9 -3 13 9 7 18 7 18 14 -4 4 -12 12 -22 17 -22 6 0 7 -6
4 -12 -4 -7 1 -4 9 6 10 13 16 15 16 7 0 -11 3 -11 17 0 13 12 17 12 21 1 2
-8 23 -33 46 -56 22 -23 48 -50 56 -61 13 -17 13 -18 0 -10 -12 7 -13 6 -3 -6
10 -12 10 -18 1 -27 -9 -9 -9 -15 1 -25 10 -10 11 -9 6 4 -4 10 0 19 11 23 13
5 15 2 11 -13 -3 -15 -1 -18 12 -14 12 4 12 1 -3 -11 -10 -8 -22 -14 -25 -11
-4 2 -8 -6 -8 -18 -2 -18 0 -19 8 -7 7 11 9 6 5 -18 -2 -17 -1 -32 3 -32 4 0
13 -11 19 -25 7 -14 20 -25 31 -25 11 0 23 -4 26 -10 3 -5 1 -10 -5 -10 -6 0
-8 -5 -4 -11 3 -6 0 -15 -7 -21 -11 -7 -9 -8 5 -6 15 2 22 -6 30 -32 5 -19 18
-42 28 -51 10 -9 18 -24 18 -33 0 -10 5 -14 11 -10 7 4 9 0 5 -13 -5 -15 2
-23 26 -36 48 -25 71 -40 85 -57 10 -12 12 -13 13 -1 0 8 3 11 7 8 3 -4 12 -2
20 4 9 9 13 8 13 0 0 -6 5 -11 10 -11 6 0 10 6 10 14 0 8 7 16 15 20 8 3 15 1
15 -4 0 -6 -6 -10 -12 -11 -7 0 -2 -5 11 -10 17 -7 28 -6 35 2 8 9 8 10 -1 5
-6 -3 -15 -1 -19 5 -4 8 -3 9 4 5 7 -4 12 -2 12 4 0 6 12 -2 27 -17 15 -16 24
-21 20 -11 -3 9 0 19 7 21 10 4 12 -1 8 -15 -4 -16 -2 -19 9 -13 7 5 27 8 44
7 20 -1 26 1 16 7 -9 6 -5 8 14 8 14 0 29 -5 32 -13 5 -14 40 -11 57 6 14 14
26 12 26 -5 0 -8 -6 -15 -14 -15 -34 0 -21 -15 15 -17 21 -2 39 2 39 7 0 5 -7
6 -17 3 -11 -4 -14 -3 -9 6 9 13 52 9 84 -8 15 -8 23 -8 28 1 4 7 3 8 -4 4 -7
-4 -12 -4 -12 1 0 4 12 13 26 20 22 10 24 10 14 -3 -10 -11 -10 -17 0 -29 7
-8 16 -12 21 -9 5 3 9 -2 9 -12 0 -14 2 -15 17 -3 11 10 14 10 9 2 -4 -8 -2
-13 4 -13 6 0 8 -4 5 -10 -3 -5 1 -10 9 -10 9 0 19 0 23 -1 4 0 9 5 11 13 3
10 2 10 -6 -1 -11 -15 -27 2 -18 18 4 5 1 11 -6 13 -7 3 -5 7 6 11 10 4 15 3
11 -3 -3 -6 3 -10 14 -10 43 0 131 -57 131 -84 0 -6 -5 -4 -10 4 -5 8 -10 11
-10 5 0 -19 18 -38 29 -31 6 4 11 3 11 -3 0 -6 7 -8 15 -5 8 4 15 1 15 -6 0
-7 6 -10 14 -7 9 4 16 -5 20 -26 4 -18 16 -40 29 -50 l22 -18 -22 6 c-12 3
-25 1 -29 -6 -4 -7 -3 -9 4 -5 6 3 13 2 17 -4 3 -5 0 -10 -7 -10 -7 0 -3 -6 8
-14 11 -8 29 -33 39 -55 10 -23 22 -41 28 -41 12 0 62 -52 59 -62 -1 -4 14
-10 33 -14 19 -3 35 -10 35 -15 0 -5 7 -6 15 -3 8 4 15 2 15 -4 0 -10 83 -37
126 -41 10 -1 14 -7 10 -16 -3 -8 -2 -14 2 -14 26 4 31 -2 22 -27 -13 -33 -13
-34 6 -34 10 0 14 -6 11 -14 -3 -7 0 -19 6 -25 8 -8 8 -11 -1 -11 -7 0 -12 -9
-12 -20 0 -13 -7 -20 -19 -20 -11 0 -23 -5 -26 -11 -4 -6 0 -9 10 -7 10 2 20
-4 22 -12 4 -13 3 -13 -6 0 -8 12 -12 10 -20 -10 -5 -14 -10 -19 -10 -12 -1 6
-5 12 -10 12 -5 0 -8 -8 -7 -17 0 -10 -5 -17 -11 -15 -12 2 -17 -10 -14 -30 1
-8 -26 -4 -35 5 -13 13 -27 7 -16 -6 8 -10 6 -16 -9 -25 -13 -9 -18 -9 -17 -1
2 6 -2 13 -9 16 -8 3 -10 -5 -7 -24 5 -25 4 -26 -8 -10 -8 10 -28 20 -46 21
-37 2 -37 2 -16 -18 9 -9 11 -16 4 -16 -6 0 -8 -4 -5 -10 4 -6 -4 -6 -22 1
-23 8 -30 7 -40 -7 -7 -10 -13 -13 -13 -6 0 6 -7 9 -15 6 -10 -4 -15 0 -15 10
0 14 4 15 20 6 13 -7 20 -7 20 -1 0 6 -9 15 -20 21 -15 8 -20 8 -20 -1 0 -6
-8 -9 -19 -6 -14 3 -18 1 -14 -9 3 -9 -2 -14 -16 -14 -19 0 -26 11 -22 34 1 5
-5 6 -14 3 -9 -4 -15 -1 -15 8 0 7 -5 17 -11 21 -8 4 -9 0 -4 -15 7 -22 -9
-30 -19 -8 -4 6 -4 2 -2 -10 4 -22 3 -22 -19 -5 -13 9 -22 19 -20 22 6 10 -24
30 -30 20 -10 -15 -28 -12 -22 4 3 8 0 17 -7 19 -9 4 -12 -1 -9 -13 5 -17 2
-18 -26 -10 -23 6 -31 6 -30 -3 3 -26 -1 -38 -12 -32 -6 4 -8 13 -5 21 3 8 1
14 -5 14 -6 0 -7 5 -3 12 5 7 3 8 -5 4 -7 -5 -10 -14 -7 -21 2 -7 -2 -16 -10
-19 -23 -9 -36 -7 -29 3 3 5 1 12 -5 16 -5 3 -10 3 -10 -2 0 -4 -12 -9 -28 -9
-15 -1 -22 1 -15 3 10 3 10 9 0 24 -6 10 -15 19 -20 19 -4 0 -5 -5 -1 -12 5
-8 0 -9 -14 -6 -27 8 -28 -3 -2 -20 21 -13 17 -42 -5 -42 -8 0 -17 -5 -21 -12
-4 -6 -3 -8 4 -5 6 5 8 -1 5 -14 -7 -25 -45 -22 -49 5 -3 22 -21 42 -29 34 -4
-3 -7 -15 -8 -27 -1 -11 -5 -17 -10 -12 -14 14 3 59 28 75 22 14 24 14 23 -2
-1 -22 10 -73 17 -80 3 -3 8 -2 13 3 4 4 2 10 -4 12 -20 7 -4 44 16 38 10 -3
17 0 17 8 0 9 -10 13 -25 11 -13 -1 -21 0 -18 3 3 4 1 12 -5 19 -9 11 -18 9
-47 -11 -19 -13 -40 -21 -45 -18 -6 3 -7 1 -3 -6 4 -6 12 -8 18 -5 6 4 9 1 6
-6 -7 -23 -29 -23 -35 -1 -5 22 -23 29 -23 10 0 -5 -4 -8 -9 -5 -5 4 -12 0
-14 -6 -3 -8 -6 -4 -7 7 -1 11 -3 26 -4 34 0 8 -8 16 -16 18 -13 4 -13 3 0 -6
13 -9 13 -11 -2 -11 -9 0 -20 5 -23 10 -8 13 -55 13 -55 0 0 -5 -5 -10 -11
-10 -5 0 -7 5 -4 10 3 6 -1 10 -10 10 -9 0 -13 5 -9 11 3 6 0 15 -7 20 -11 7
-9 9 6 9 16 0 17 2 5 10 -11 7 -18 4 -26 -11 -9 -18 -12 -19 -23 -5 -8 10 -22
13 -41 10 -15 -4 -31 -1 -34 5 -10 16 -39 14 -30 -2 4 -6 -2 -3 -14 7 -23 20
-30 32 -12 21 13 -8 12 1 -4 45 -11 31 -13 32 -18 12 -4 -12 -2 -22 3 -22 5 0
9 -4 9 -9 0 -5 -9 -7 -21 -4 -14 4 -18 11 -13 22 3 9 8 25 11 36 2 11 -8 -8
-23 -42 -15 -38 -32 -63 -41 -63 -11 0 -14 7 -10 23 3 12 -1 38 -9 57 l-14 35
4 -37 c3 -21 0 -40 -5 -44 -16 -9 -39 16 -40 45 -1 21 -3 20 -8 -9 -7 -42 -41
-56 -41 -17 0 21 -3 23 -33 18 -32 -6 -32 -6 -4 -9 33 -4 31 -25 -2 -30 -29
-5 -51 15 -51 44 0 15 -6 24 -15 24 -10 0 -15 -11 -15 -35 0 -24 -5 -35 -15
-35 -11 0 -15 12 -15 49 0 49 1 50 30 49 16 -1 30 -5 30 -11 0 -5 7 -4 15 3 8
7 27 10 41 7 20 -3 28 1 36 19 9 19 19 24 50 24 31 0 38 -3 38 -20 0 -13 7
-20 20 -20 14 0 20 -7 21 -22 l0 -23 11 23 c6 12 18 22 27 23 12 0 11 3 -4 9
-11 4 -31 6 -44 3 -21 -5 -23 -3 -18 16 4 17 1 21 -21 22 -15 1 -33 1 -41 0
-8 -2 -10 3 -6 11 6 10 5 11 -6 1 -17 -17 -29 -16 -29 1 0 8 -3 16 -7 19 -5 2
-3 2 4 1 6 -2 16 3 22 10 9 11 5 12 -16 8 -15 -3 -34 -11 -41 -19 -7 -7 -21
-13 -30 -12 -13 0 -11 3 6 11 26 13 27 21 7 38 -8 7 -12 17 -8 24 3 6 0 5 -8
-3 -11 -10 -11 -15 -2 -18 10 -4 9 -8 -1 -19 -20 -19 -21 -19 -22 21 0 20 -6
41 -13 48 -10 9 -11 8 -5 -8 8 -19 7 -19 -18 -3 -25 17 -26 17 -22 -5 l5 -22
-12 23 c-7 12 -16 22 -22 22 -5 0 -6 12 -3 28 5 20 4 23 -4 12 -5 -8 -10 -26
-10 -39 0 -20 -2 -21 -15 -11 -18 15 -20 35 -3 24 7 -4 8 -3 4 4 -4 6 -14 8
-23 5 -12 -5 -15 -2 -10 10 3 9 2 17 -3 17 -6 0 -10 -6 -10 -13 0 -8 -9 -13
-23 -11 -12 1 -25 3 -29 3 -4 1 -5 7 -3 14 3 6 -7 17 -21 24 -20 9 -26 9 -31
-3 -3 -8 -9 -14 -15 -14 -5 0 -6 5 -3 10 6 9 -11 14 -45 12 -8 0 -20 8 -28 19
-7 10 -18 19 -24 19 -7 0 -6 -6 2 -15 11 -13 8 -15 -15 -15 -20 0 -26 4 -21
15 7 20 -8 19 -25 -2 -12 -14 -12 -16 0 -8 10 5 12 4 7 -3 -5 -9 -13 -9 -27
-1 -11 5 -29 7 -39 4 -11 -4 -20 -2 -20 4 0 6 -7 8 -15 5 -8 -4 -12 -11 -9
-18 3 -6 -1 -3 -9 7 -19 23 -31 22 -24 -3 6 -22 -8 -28 -16 -7 -4 10 -6 10 -6
0 -1 -7 -5 -13 -10 -13 -5 0 -6 10 -3 23 5 21 5 21 -12 5 -9 -10 -14 -23 -10
-29 3 -6 -5 -3 -20 6 -14 10 -26 14 -26 10 0 -4 -7 -2 -15 5 -8 7 -12 17 -9
22 4 6 -4 4 -17 -3 -50 -26 -87 -20 -96 16 -1 6 -5 20 -8 32 -5 16 -1 24 14
33 12 6 19 16 15 23 -5 9 -3 8 6 0 12 -11 11 -16 -6 -29 -18 -14 -18 -15 5 -3
21 10 23 9 18 -5 -4 -11 -3 -15 4 -11 6 4 8 14 4 22 -6 18 21 53 42 53 7 0 13
5 13 10 0 13 -37 13 -45 0 -3 -5 -14 -9 -23 -9 -15 1 -15 2 -1 6 21 5 32 44
17 58 -8 7 -9 5 -4 -9 5 -16 4 -17 -8 -7 -11 10 -17 8 -25 -6 -6 -10 -11 -13
-11 -6 0 6 7 19 16 27 14 15 14 16 -5 16 -13 0 -21 -6 -21 -17 0 -15 -2 -14
-15 3 -11 14 -15 16 -15 4 -1 -16 -50 -57 -50 -42 0 6 7 13 16 16 9 4 14 13
10 21 -3 8 -1 15 4 15 6 0 10 4 10 8 0 5 -10 8 -22 8 -13 -1 -22 4 -21 11 2 7
-4 10 -13 6 -9 -3 -11 -9 -6 -12 6 -4 5 -11 -3 -18 -10 -9 -15 -9 -17 -1 -2 6
-21 12 -42 14 -21 1 -42 8 -47 16 -11 17 -10 -1 1 -27 5 -11 9 -14 9 -7 1 10
6 10 21 2 11 -6 25 -8 30 -5 6 3 7 -1 4 -10 -5 -11 -10 -13 -19 -5 -16 14 -26
1 -15 -20 6 -12 5 -23 -6 -36 -13 -18 -14 -17 -8 9 5 21 2 27 -10 27 -9 0 -16
6 -17 13 -2 36 -19 79 -19 49 0 -7 -5 -12 -11 -12 -5 0 -7 5 -4 10 3 6 1 10
-4 10 -6 0 -11 -7 -11 -15 0 -9 -6 -12 -15 -9 -9 4 -15 0 -15 -10 0 -19 1 -19
34 -6 17 6 26 6 26 0 0 -5 -11 -12 -25 -16 -17 -4 -25 -13 -25 -28 1 -21 1
-21 17 -1 13 16 15 17 10 3 -4 -10 -2 -18 2 -18 5 0 7 -10 4 -23 -4 -17 -2
-19 6 -7 9 12 11 12 16 -2 4 -9 14 -19 23 -23 12 -4 10 1 -6 18 -12 13 -19 27
-15 30 3 4 1 7 -5 7 -7 0 -12 9 -12 20 0 11 5 20 11 20 5 0 7 -5 4 -10 -3 -6
0 -13 9 -16 8 -3 12 -12 9 -20 -4 -10 2 -17 16 -21 11 -3 18 -9 15 -15 -8 -13
24 -58 42 -58 8 0 12 5 9 10 -4 6 -10 8 -15 5 -13 -8 -22 13 -15 35 6 18 8 18
21 5 18 -17 24 -18 44 -5 10 6 11 10 3 10 -7 0 -13 10 -13 22 0 29 20 10 23
-21 1 -21 11 -28 20 -13 2 4 2 1 1 -5 -2 -7 3 -13 10 -13 7 0 21 -9 31 -20 10
-11 14 -20 9 -20 -5 0 -2 -5 6 -10 10 -6 11 -10 3 -10 -7 0 -13 -7 -13 -16 0
-8 5 -12 10 -9 6 3 10 1 10 -4 0 -6 -3 -11 -7 -12 -5 0 -16 -2 -25 -4 -15 -3
-16 0 -8 16 13 23 7 24 -15 3 -15 -15 -15 -14 -9 10 7 30 2 33 -20 10 -9 -8
-16 -11 -16 -5 0 6 -4 11 -10 11 -5 0 -10 -6 -10 -13 0 -7 -9 -13 -20 -13 -11
0 -20 3 -20 7 0 4 -7 10 -16 13 -12 5 -15 2 -10 -9 3 -9 2 -13 -4 -10 -6 3
-10 13 -10 21 0 18 -5 18 -37 -3 -18 -12 -25 -13 -22 -4 3 7 8 12 13 11 12 -2
35 33 29 44 -3 5 -10 1 -15 -7 -5 -11 -18 -15 -38 -12 -22 2 -27 0 -23 -11 3
-8 9 -14 15 -14 5 0 6 -5 3 -10 -4 -6 -11 -8 -16 -5 -5 4 -9 -148 -9 -389 l0
-396 1129 0 c887 0 1131 3 1134 13 4 9 6 9 6 0 1 -10 589 -13 2907 -13 l2905
0 172 117 c95 64 183 125 197 135 46 34 570 400 914 638 187 129 383 265 435
302 53 37 174 120 269 185 95 65 223 153 285 196 61 42 165 113 229 157 65 44
184 127 265 184 82 57 175 123 208 145 123 85 275 190 440 306 94 65 206 143
250 173 44 31 166 117 271 191 104 75 223 159 263 186 40 28 132 92 204 144
251 179 613 435 722 511 40 27 283 200 475 336 85 61 216 153 290 204 74 51
173 121 220 155 47 34 162 115 255 180 94 66 294 207 445 315 424 303 1037
739 1117 795 40 27 186 131 325 231 139 99 319 228 400 285 82 57 235 166 340
242 106 76 225 160 263 187 39 27 93 66 122 87 29 21 144 105 257 187 l206
148 0 1474 c0 811 -2 1474 -5 1474 -3 0 -83 -67 -178 -148 -94 -82 -217 -186
-273 -233 -55 -46 -199 -168 -320 -270 -723 -615 -867 -737 -1038 -883 -104
-88 -206 -174 -226 -191 -44 -35 -230 -192 -375 -316 -55 -47 -194 -166 -310
-264 -363 -309 -384 -328 -378 -338 3 -6 1 -7 -4 -4 -6 4 -78 -51 -160 -121
-82 -70 -200 -170 -263 -222 -62 -52 -163 -138 -224 -190 -62 -52 -194 -165
-295 -250 -101 -85 -281 -238 -401 -340 -120 -102 -296 -251 -391 -332 -96
-80 -228 -193 -295 -250 -66 -56 -167 -143 -225 -191 -57 -49 -163 -139 -235
-200 l-131 -112 -7 -125 c-8 -158 -21 -265 -47 -410 -28 -148 -31 -154 -59
-107 -12 20 -27 34 -33 30 -6 -3 -7 -1 -3 5 4 7 -4 23 -17 36 -14 14 -23 27
-21 29 8 8 -188 207 -198 200 -6 -3 -8 -2 -5 4 7 10 -52 60 -66 55 -5 -1 -6 1
-3 6 5 9 -100 99 -142 121 -12 7 -28 9 -34 5 -6 -4 -8 -3 -5 3 4 6 -2 13 -14
16 -19 5 -20 11 -16 109 2 57 2 83 0 59 -4 -45 -25 -77 -43 -66 -6 4 -9 19 -6
33 13 63 12 67 -14 70 -14 2 -20 -1 -14 -5 7 -5 4 -14 -7 -25 -17 -16 -19 -15
-31 13 -7 16 -25 35 -40 42 -16 6 -28 16 -28 20 0 5 5 5 11 1 7 -4 10 -1 7 7
-5 16 -52 24 -76 13 -10 -4 -21 -6 -26 -5 -4 1 -19 -10 -32 -24 -12 -14 -26
-25 -29 -25 -13 0 -35 29 -35 47 0 15 -2 16 -10 3 -5 -8 -10 -25 -10 -36 0
-25 -16 -34 -51 -27 -19 3 -25 0 -26 -14 -3 -37 -10 -53 -31 -71 -22 -19 -31
-39 -12 -27 6 3 10 0 11 -7 0 -7 2 -37 4 -66 4 -46 2 -52 -15 -52 -11 0 -20 5
-20 10 0 6 -5 10 -11 10 -6 0 -7 -6 -2 -12 4 -7 -5 -5 -20 5 -15 10 -27 13
-27 7 0 -6 -4 -8 -10 -5 -5 3 -10 0 -10 -7 0 -9 -3 -9 -10 2 -8 13 -10 12 -10
-4 0 -11 -5 -16 -13 -13 -8 3 -14 0 -14 -6 0 -7 -4 -21 -8 -32 -5 -16 -5 -17
4 -5 9 13 11 13 11 -2 0 -10 -3 -18 -7 -18 -5 0 -26 -16 -47 -35 -22 -19 -46
-35 -53 -35 -8 0 -16 -7 -19 -15 -4 -8 -12 -15 -20 -15 -18 0 -49 -18 -81 -46
-13 -12 -39 -32 -58 -45 -19 -13 -35 -30 -35 -36 0 -7 -6 -13 -13 -13 -12 0
-102 -94 -120 -126 -5 -8 -12 -12 -18 -9 -5 3 -6 -1 -3 -9 4 -11 -3 -15 -32
-18 -43 -3 -76 -40 -76 -82 0 -16 -6 -26 -15 -26 -9 0 -13 6 -9 15 4 12 -4 15
-39 15 -25 0 -45 4 -45 10 0 5 -7 7 -15 4 -8 -4 -15 -12 -15 -20 0 -7 -9 -19
-20 -27 -13 -9 -18 -20 -14 -31 4 -11 1 -16 -14 -16 -11 0 -22 -7 -26 -15 -3
-8 -11 -15 -18 -15 -7 0 -19 -15 -27 -32 -8 -18 -23 -44 -35 -58 -39 -45 -55
-84 -45 -103 7 -13 7 -17 -2 -15 -22 5 -12 -350 18 -681 l17 -183 -34 -29
c-41 -35 -143 -93 -380 -219 -96 -51 -229 -125 -295 -165 -66 -40 -130 -77
-143 -84 -19 -10 -33 -7 -100 23 -42 19 -140 60 -217 91 -373 151 -522 224
-585 289 -24 25 -48 42 -52 40 -4 -3 -5 3 -1 12 5 13 3 15 -7 9 -8 -5 -11 -4
-6 3 3 6 0 26 -9 44 -11 25 -13 27 -9 8 l5 -25 -14 23 c-7 12 -15 20 -18 17
-3 -3 -31 -7 -63 -10 -31 -3 -67 -10 -79 -17 -12 -6 -23 -10 -25 -9 -2 2 -16
-2 -32 -9 -21 -9 -30 -19 -30 -35 0 -12 -10 -30 -23 -39 -12 -10 -24 -29 -25
-42 -2 -23 -1 -24 22 -9 30 20 42 5 28 -33 -10 -27 -20 -56 -23 -70 -1 -4 20
-7 47 -7 46 0 49 -2 52 -27 3 -21 -3 -30 -27 -43 -38 -19 -38 -26 -3 -46 27
-15 28 -18 29 -113 1 -72 -1 -95 -10 -90 -7 3 -3 -2 8 -11 30 -25 108 -63 206
-101 149 -58 249 -104 409 -190 223 -120 346 -167 440 -171 41 -1 85 -3 97 -4
27 -1 212 67 348 129 191 86 490 262 563 331 18 17 35 31 36 31 2 0 21 -17 42
-37 48 -45 138 -103 265 -171 125 -67 129 -73 79 -101 -23 -13 -37 -27 -34
-33 4 -7 2 -8 -4 -4 -6 4 -44 -10 -84 -30 -272 -137 -682 -256 -1028 -299
-234 -28 -587 -17 -876 30 -269 43 -621 154 -846 265 -33 17 -65 30 -72 30
-38 0 -440 267 -596 396 -495 408 -848 942 -1030 1559 -26 88 -55 195 -65 238
-10 50 -20 75 -27 71 -7 -5 -8 -2 -2 7 13 22 13 31 -2 130 -51 342 -36 742 42
1113 57 269 175 602 289 813 18 34 51 94 73 135 69 128 103 180 225 333 250
314 553 579 903 790 519 313 1025 455 1624 455 272 0 460 -23 750 -91 169 -40
535 -162 605 -201 472 -269 617 -368 867 -595 226 -205 487 -538 636 -813 185
-341 301 -708 357 -1132 l6 -48 22 24 c12 13 108 95 212 182 267 222 310 258
395 334 41 37 176 155 300 261 124 106 279 241 346 299 66 58 160 140 210 182
265 227 347 299 430 372 50 45 130 115 179 156 48 41 106 91 129 111 58 51
300 260 490 422 402 344 465 401 459 410 -3 6 -1 7 4 4 6 -4 62 39 124 95 63
55 168 146 233 202 206 175 418 357 486 416 87 77 295 257 346 300 23 19 201
172 395 340 349 300 727 625 824 707 l50 42 -4256 1 c-3878 0 -4258 -1 -4270
-16z m2681 -5706 c19 -24 25 -35 14 -25 -12 9 -24 15 -27 12 -4 -3 -5 -2 -2 2
3 3 -2 17 -10 30 -24 37 -11 27 25 -19z m-765 -48 c-8 -13 285 -311 298 -303
5 3 7 1 3 -5 -3 -6 2 -17 12 -24 11 -7 20 -16 21 -20 0 -5 3 -8 6 -8 3 1 13
-6 21 -15 9 -8 20 -12 26 -9 7 4 8 2 4 -5 -4 -6 0 -14 8 -17 9 -3 13 -11 10
-16 -4 -6 -15 -1 -26 13 -17 21 -18 21 -9 3 6 -12 24 -34 42 -48 17 -14 27
-26 23 -26 -5 0 27 -36 71 -80 71 -72 109 -101 89 -68 -4 7 -3 8 5 4 6 -4 9
-11 6 -15 -8 -13 31 -42 61 -46 19 -2 34 4 46 19 26 31 22 15 -17 -69 -20 -42
-33 -81 -29 -87 4 -6 3 -8 -4 -4 -6 4 -28 -26 -54 -76 -54 -106 -208 -335
-306 -458 -99 -124 -349 -373 -481 -479 -57 -45 -110 -85 -117 -88 -9 -3 -68
49 -152 134 -75 77 -173 171 -216 209 l-79 70 17 124 c13 90 20 229 26 500 8
425 9 431 88 502 57 52 584 398 605 398 5 0 5 -4 2 -10z m895 -134 c0 -6 -7
-1 -15 10 -8 10 -15 23 -15 28 0 6 7 1 15 -10 8 -10 15 -23 15 -28z m-465
-307 c11 -16 1 -19 -13 -3 -7 8 -8 14 -3 14 5 0 13 -5 16 -11z m50 -59 c27
-30 12 -34 -15 -5 -13 14 -19 25 -13 25 5 0 18 -9 28 -20z m65 -72 c0 -6 8 -7
17 -4 10 4 14 4 10 0 -4 -4 -1 -14 6 -23 6 -8 -2 -5 -20 7 -37 26 -52 45 -29
36 9 -3 16 -11 16 -16z m-3769 -842 c5 3 9 0 9 -5 0 -6 -7 -11 -15 -11 -8 0
-15 8 -14 18 0 10 3 12 6 4 2 -6 9 -10 14 -6z m-35 -23 c-6 -15 -8 -15 -16 -3
-7 10 -10 11 -10 3 0 -7 -4 -13 -10 -13 -18 0 -10 17 13 27 27 13 32 10 23
-14z m2634 -718 c0 -2 -10 -9 -22 -15 -22 -11 -22 -10 -4 4 21 17 26 19 26 11z
m-9910 -331 c0 -8 -19 -13 -24 -6 -3 5 1 9 9 9 8 0 15 -2 15 -3z m396 -204 c0
-12 -4 -16 -9 -11 -5 5 -6 14 -3 20 10 15 12 14 12 -9z m-826 -791 c0 -6 -4
-7 -10 -4 -5 3 -10 11 -10 16 0 6 5 7 10 4 6 -3 10 -11 10 -16z m-70 -39 c0
-5 -5 -10 -11 -10 -5 0 -7 5 -4 10 3 6 8 10 11 10 2 0 4 -4 4 -10z m6 -35 c17
-16 14 -18 -10 -9 -9 3 -16 10 -16 15 0 13 9 11 26 -6z m122 -44 c-12 -19 -28
-19 -28 0 0 6 4 8 9 4 5 -3 12 -1 16 5 3 5 8 10 11 10 2 0 -1 -9 -8 -19z m422
-120 c0 -6 -4 -12 -8 -15 -5 -3 -9 1 -9 9 0 8 4 15 9 15 4 0 8 -4 8 -9z m175
-10 c3 -5 0 -13 -6 -17 -7 -4 -9 -3 -5 4 3 5 0 13 -6 15 -9 4 -10 6 -1 6 6 1
14 -3 18 -8z m35 -51 c0 -5 -2 -10 -4 -10 -3 0 -8 5 -11 10 -3 6 -1 10 4 10 6
0 11 -4 11 -10z m87 -46 c-3 -3 -12 -4 -19 -1 -8 3 -5 6 6 6 11 1 17 -2 13 -5z
m-799 -73 c-37 -97 -75 -181 -80 -181 -5 0 -8 43 -8 95 l0 95 46 0 c25 0 44
-4 42 -9z m152 -86 c0 -52 -3 -95 -7 -95 -7 0 -83 169 -83 184 0 3 20 6 45 6
l45 0 0 -95z m258 20 c3 -36 4 -37 18 -16 18 25 46 27 68 6 13 -14 15 -12 18
17 3 36 27 50 34 21 3 -10 15 -23 27 -28 25 -11 34 -49 17 -71 -18 -21 -80
-19 -80 4 -1 16 -1 16 -11 0 -15 -27 -67 -24 -79 5 l-9 22 0 -22 c-2 -44 -72
-37 -86 8 -7 22 18 59 42 59 7 0 13 9 13 21 0 37 25 14 28 -26z m442 -31 c0
-50 -3 -64 -15 -64 -12 0 -15 14 -15 63 0 35 3 67 6 70 16 15 24 -9 24 -69z
m-544 3 c22 -55 22 -57 3 -57 -10 0 -19 5 -19 10 0 6 -9 10 -20 10 -11 0 -20
-4 -20 -10 0 -5 -9 -10 -20 -10 -19 0 -19 1 3 60 27 75 43 75 73 -3z m504 48
c0 -8 -9 -15 -20 -15 -11 0 -20 -4 -20 -10 0 -5 9 -10 20 -10 11 0 20 -7 20
-15 0 -8 -9 -15 -19 -15 -13 0 -21 -8 -23 -22 -2 -13 -10 -23 -18 -23 -11 0
-16 15 -18 63 l-3 62 41 0 c29 0 40 -4 40 -15z m-130 -30 c17 -21 4 -48 -20
-42 -11 3 -20 1 -20 -4 0 -5 9 -9 20 -9 24 0 27 -15 4 -24 -28 -11 -54 12 -54
49 0 18 6 36 13 38 23 10 45 7 57 -8z m-617 -55 l26 -60 -24 0 c-14 0 -25 7
-28 19 -2 11 -14 21 -25 23 -19 3 -19 5 -5 41 8 20 18 37 22 37 4 0 19 -27 34
-60z m462 -129 c-5 -16 -1 -19 27 -18 30 2 33 -1 36 -30 2 -24 -1 -33 -17 -38
-28 -9 -41 1 -42 33 l-1 27 -7 -29 c-3 -17 -10 -30 -16 -30 -15 -1 -18 73 -4
90 17 20 31 17 24 -5z m679 -6 c-5 -12 0 -14 24 -9 27 6 32 3 38 -20 11 -46 1
-54 -67 -53 -65 2 -89 18 -76 51 8 19 35 32 45 21 4 -4 1 -10 -5 -12 -18 -7
-16 -43 2 -43 11 0 15 11 15 38 0 21 3 42 6 45 11 11 24 -3 18 -18z m96 -14
c0 -22 3 -46 6 -55 4 -10 1 -16 -9 -16 -11 0 -16 14 -19 55 -2 39 1 55 10 55
7 0 12 -15 12 -39z m111 5 c0 -11 3 -15 6 -8 2 6 15 12 28 12 19 0 22 -4 19
-22 -5 -23 -4 -23 6 0 7 16 17 22 32 20 29 -4 39 -47 11 -49 -15 -1 -16 -2 -1
-6 21 -5 31 -30 16 -39 -7 -4 -8 -3 -4 4 8 13 2 13 -114 16 l-65 1 -3 48 c-2
36 0 47 12 47 10 0 16 -13 19 -42 l4 -43 1 47 c2 38 5 46 17 42 8 -4 15 -16
16 -28z m-1471 -26 c0 -27 -4 -50 -10 -50 -5 0 -10 23 -10 50 0 28 5 50 10 50
6 0 10 -22 10 -50z m368 28 l11 -23 0 23 c2 46 21 20 21 -28 0 -54 -15 -66
-30 -25 -11 30 -23 33 -18 5 2 -10 -1 -20 -7 -22 -5 -2 -11 18 -13 45 -3 52
16 66 36 25z m147 -38 c1 -26 -3 -40 -12 -40 -16 0 -27 43 -19 76 10 38 30 15
31 -36z m280 50 c3 -5 -3 -10 -14 -10 -11 0 -23 -5 -26 -10 -10 -16 5 -50 21
-50 8 0 14 -4 14 -10 0 -15 -27 -12 -44 6 -19 18 -21 55 -4 72 15 15 45 16 53
2z m-697 -52 c2 -22 -1 -38 -7 -38 -6 0 -12 15 -13 33 l-1 32 -4 -32 c-5 -41
-23 -43 -23 -3 0 17 -4 30 -10 30 -5 0 -10 -13 -10 -30 0 -16 -4 -30 -10 -30
-5 0 -10 18 -10 41 l0 40 43 -3 c41 -3 42 -4 45 -40z m61 25 c9 -17 10 -17 16
0 6 13 18 17 54 16 67 -2 95 -30 49 -49 -18 -7 -19 -9 -5 -9 9 -1 17 -6 17
-12 0 -7 -10 -9 -24 -7 -16 3 -27 0 -30 -9 -4 -9 -17 -13 -33 -11 -24 3 -28 7
-26 33 2 27 2 28 -7 8 -5 -14 -18 -23 -30 -23 -29 0 -38 30 -15 46 17 13 17
14 1 14 -9 0 -14 5 -11 10 10 16 33 12 44 -7z m309 -21 c2 -22 -2 -34 -12 -38
-34 -13 -61 37 -34 64 21 21 43 9 46 -26z m232 29 c0 -6 -4 -13 -10 -16 -5 -3
-10 -17 -10 -31 0 -13 -4 -24 -10 -24 -5 0 -10 18 -10 40 0 33 3 40 20 40 11
0 20 -4 20 -9z m156 -17 c8 -30 -16 -60 -40 -51 -16 6 -23 57 -9 70 16 16 43
6 49 -19z m102 -16 c2 -22 -1 -38 -7 -38 -6 0 -12 15 -12 33 l-1 32 -7 -29
c-8 -39 -24 -39 -32 -1 l-7 30 -1 -32 c-2 -48 -21 -40 -21 8 l0 40 43 -3 c41
-3 42 -4 45 -40z m110 -2 c4 -46 -19 -47 -29 0 l-7 29 -1 -32 c-1 -41 -21 -44
-21 -3 0 17 -4 30 -10 30 -5 0 -10 -13 -10 -30 0 -16 -4 -30 -10 -30 -5 0 -10
18 -10 40 l0 40 48 -2 c47 -3 47 -3 50 -42z m61 27 c10 -17 10 -17 11 0 0 10
8 17 20 17 21 0 27 -15 10 -25 -5 -3 -10 -17 -10 -31 0 -13 -4 -24 -10 -24 -5
0 -10 9 -10 19 0 15 -5 18 -22 13 -19 -5 -20 -7 -5 -10 25 -5 21 -24 -5 -20
-23 3 -35 35 -24 64 7 19 33 18 45 -3z m951 3 c0 -3 -4 -8 -10 -11 -5 -3 -10
-1 -10 4 0 6 5 11 10 11 6 0 10 -2 10 -4z m-196 -17 c-3 -5 -16 -9 -30 -9 -33
0 -24 15 10 16 14 1 23 -2 20 -7z m541 -9 c3 -5 1 -10 -4 -10 -6 0 -11 5 -11
10 0 6 2 10 4 10 3 0 8 -4 11 -10z m-470 -10 c-3 -5 -3 -15 1 -22 5 -8 11 -5
20 7 8 10 16 16 18 14 3 -3 -6 -18 -20 -34 -14 -17 -23 -25 -20 -18 4 6 0 18
-8 26 -11 11 -12 17 -3 26 14 14 20 14 12 1z m-330 -20 c3 -6 -1 -7 -9 -4 -18
7 -21 14 -7 14 6 0 13 -4 16 -10z m193 -36 c-11 -11 -18 -12 -22 -5 -4 6 0 11
8 11 9 0 16 5 16 12 0 6 3 8 7 4 4 -3 0 -14 -9 -22z m-108 6 c0 -5 -5 -10 -11
-10 -5 0 -7 5 -4 10 3 6 8 10 11 10 2 0 4 -4 4 -10z m34 -19 c3 -5 -1 -11 -9
-14 -9 -4 -12 -1 -8 9 6 16 10 17 17 5z m430 -7 c3 -8 2 -12 -4 -9 -6 3 -10
10 -10 16 0 14 7 11 14 -7z m-471 -1 c-7 -2 -19 -2 -25 0 -7 3 -2 5 12 5 14 0
19 -2 13 -5z m88 -10 c13 -16 12 -17 -3 -4 -17 13 -22 21 -14 21 2 0 10 -8 17
-17z m49 7 c0 -5 -2 -10 -4 -10 -3 0 -8 5 -11 10 -3 6 -1 10 4 10 6 0 11 -4
11 -10z m145 -129 c3 -5 2 -12 -3 -15 -5 -3 -9 1 -9 9 0 17 3 19 12 6z"/>
<path d="M570 460 c0 -11 5 -20 10 -20 6 0 10 9 10 20 0 11 -4 20 -10 20 -5 0
-10 -9 -10 -20z"/>
<path d="M660 460 c0 -13 5 -20 13 -17 6 2 12 10 12 17 0 7 -6 15 -12 18 -8 2
-13 -5 -13 -18z"/>
<path d="M760 459 c0 -11 5 -17 10 -14 6 3 10 13 10 21 0 8 -4 14 -10 14 -5 0
-10 -9 -10 -21z"/>
<path d="M470 480 c0 -5 5 -10 11 -10 5 0 7 5 4 10 -3 6 -8 10 -11 10 -2 0 -4
-4 -4 -10z"/>
<path d="M760 260 c0 -11 5 -20 10 -20 6 0 10 9 10 20 0 11 -4 20 -10 20 -5 0
-10 -9 -10 -20z"/>
<path d="M1420 270 c0 -5 7 -7 15 -4 8 4 15 8 15 10 0 2 -7 4 -15 4 -8 0 -15
-4 -15 -10z"/>
<path d="M1621 254 c0 -11 3 -14 6 -6 3 7 2 16 -1 19 -3 4 -6 -2 -5 -13z"/>
<path d="M372 260 c-10 -17 -10 -20 3 -20 8 0 15 9 15 20 0 11 -1 20 -3 20 -1
0 -8 -9 -15 -20z"/>
<path d="M345 220 c3 -5 8 -10 11 -10 2 0 4 5 4 10 0 6 -5 10 -11 10 -5 0 -7
-4 -4 -10z"/>
<path d="M584 269 c-3 -6 -1 -16 5 -22 8 -8 11 -5 11 11 0 24 -5 28 -16 11z"/>
<path d="M970 259 c0 -11 5 -17 10 -14 6 3 10 13 10 21 0 8 -4 14 -10 14 -5 0
-10 -9 -10 -21z"/>
<path d="M10573 6987 c0 -7 9 -13 19 -13 10 0 18 1 18 3 0 1 -8 7 -18 12 -13
7 -19 6 -19 -2z"/>
<path d="M10643 6945 c0 -8 4 -12 9 -9 5 3 6 10 3 15 -9 13 -12 11 -12 -6z"/>
<path d="M10673 6925 c0 -7 7 -11 15 -7 11 4 13 1 7 -8 -5 -9 -4 -11 3 -6 16
10 15 14 -6 25 -14 7 -19 6 -19 -4z"/>
<path d="M10723 6895 c0 -7 6 -11 12 -9 7 3 18 -2 25 -11 7 -8 18 -15 24 -15
11 1 -15 24 -45 40 -11 6 -16 5 -16 -5z"/>
<path d="M10681 6854 c0 -11 3 -14 6 -6 3 7 2 16 -1 19 -3 4 -6 -2 -5 -13z"/>
<path d="M10765 6840 c-3 -6 1 -7 9 -4 18 7 21 14 7 14 -6 0 -13 -4 -16 -10z"/>
<path d="M10834 6832 c3 -5 0 -13 -6 -15 -9 -4 -10 -6 -1 -6 17 -1 25 16 12
25 -7 4 -9 3 -5 -4z"/>
<path d="M7115 6820 c-3 -6 1 -7 9 -4 18 7 21 14 7 14 -6 0 -13 -4 -16 -10z"/>
<path d="M10605 6820 c3 -5 11 -10 16 -10 6 0 7 5 4 10 -3 6 -11 10 -16 10 -6
0 -7 -4 -4 -10z"/>
<path d="M10720 6826 c0 -2 7 -7 16 -10 8 -3 12 -2 9 4 -6 10 -25 14 -25 6z"/>
<path d="M10501 6798 c-9 -15 -16 -18 -18 -10 -3 6 -10 12 -16 12 -8 0 -7 -4
1 -12 13 -13 17 -62 4 -54 -5 3 -9 -1 -9 -9 0 -8 6 -15 14 -15 18 0 16 -35 -3
-54 -13 -14 -13 -18 -1 -36 7 -11 17 -17 20 -13 4 3 2 12 -4 19 -7 8 -6 14 2
20 7 4 9 3 6 -3 -4 -6 0 -16 8 -23 20 -17 19 -30 -2 -30 -15 0 -16 -2 -3 -10
8 -5 22 -7 32 -4 9 2 19 0 23 -6 3 -5 1 -10 -5 -10 -27 0 -3 -33 25 -36 17 -1
22 0 13 3 -10 2 -18 11 -18 20 0 26 25 8 37 -28 6 -19 16 -33 22 -31 6 1 11
-4 11 -10 0 -7 13 -13 30 -14 37 -1 50 -12 30 -24 -11 -7 -8 -10 13 -10 15 0
27 -4 27 -10 0 -5 10 -10 23 -11 20 0 21 -1 3 -8 -19 -7 -19 -8 1 -13 12 -3
27 -1 33 6 10 8 10 6 1 -11 -9 -17 -8 -21 4 -19 8 1 18 5 21 9 4 4 12 3 18 -1
6 -5 20 1 32 14 24 24 17 40 -28 63 -16 8 -28 20 -28 27 0 7 -8 18 -17 23 -10
6 -16 11 -13 11 42 8 80 7 80 -1 0 -6 4 -8 9 -4 5 3 12 1 16 -5 4 -6 11 -7 17
-4 6 4 8 3 5 -2 -11 -18 8 -33 48 -36 22 -2 43 -7 47 -13 11 -15 32 -12 39 5
4 8 2 21 -4 28 -7 9 -6 11 5 7 8 -3 21 1 28 10 8 10 9 15 1 15 -6 0 -11 5 -11
11 0 14 -45 52 -139 117 -141 98 -176 120 -224 142 -40 19 -50 20 -64 9 -10
-8 -14 -9 -10 -2 5 8 -2 12 -20 11 -16 0 -41 5 -56 11 -38 15 -40 14 -56 -11z
m59 -174 c0 -8 -5 -12 -10 -9 -6 4 -8 11 -5 16 9 14 15 11 15 -7z"/>
<path d="M7134 6775 c6 -16 -9 -21 -19 -5 -3 5 -12 7 -20 4 -8 -4 -12 -11 -9
-16 4 -6 -2 -6 -14 1 -16 8 -21 7 -26 -5 -5 -12 -10 -13 -19 -5 -10 8 -27 1
-68 -26 -54 -36 -89 -64 -59 -48 9 5 12 4 7 -1 -5 -5 -16 -9 -25 -9 -9 0 -16
-5 -15 -11 4 -23 -45 -7 -154 49 -62 31 -116 57 -120 57 -5 -1 12 -11 36 -24
27 -14 40 -26 32 -30 -13 -9 -5 -26 12 -26 7 0 6 4 -3 11 -12 8 -12 10 -1 7 8
-2 15 -12 17 -22 2 -13 -2 -16 -14 -12 -13 5 -12 2 2 -9 22 -17 14 -20 -13 -6
-13 7 -18 6 -18 -5 0 -7 5 -14 10 -14 6 0 -5 -14 -24 -31 -95 -86 -129 -123
-129 -140 0 -11 -5 -19 -10 -19 -7 0 -9 -15 -5 -37 3 -21 2 -33 -1 -26 -9 19
-34 3 -34 -21 0 -12 6 -28 12 -34 10 -10 10 -17 0 -33 -10 -16 -10 -23 2 -40
7 -11 11 -29 9 -40 -5 -16 -8 -17 -22 -7 -15 12 -15 11 -1 -6 12 -15 16 -67
21 -255 3 -130 8 -246 11 -258 17 -58 47 -84 49 -40 0 20 1 21 8 2 8 -19 8
-19 20 0 11 20 11 20 9 0 -2 -14 3 -20 17 -20 11 0 19 6 17 13 -5 24 36 71 57
65 10 -3 22 0 26 7 5 7 13 4 25 -10 15 -17 19 -18 24 -5 3 8 12 15 19 15 19 0
36 41 30 71 -3 15 1 30 11 38 8 7 13 18 10 26 -3 7 -1 16 5 20 6 3 11 17 11
29 0 13 7 29 15 36 23 19 46 70 32 70 -8 0 -8 3 -2 8 6 4 11 24 11 45 1 21 7
44 13 50 10 9 10 6 2 -16 -9 -22 -8 -29 4 -33 22 -9 37 5 29 29 -6 19 -5 20 9
6 8 -9 17 -27 20 -40 4 -21 4 -21 6 5 0 17 11 40 22 53 20 20 20 23 5 29 -9 3
-16 10 -16 16 0 5 4 7 9 4 5 -3 8 2 7 12 0 9 5 16 12 15 6 -2 12 2 12 8 0 7
10 9 25 7 13 -3 22 -2 20 3 -3 4 0 9 7 12 7 2 4 3 -7 1 -15 -3 -13 2 10 21 35
28 65 38 65 22 0 -7 4 -6 10 3 6 9 5 17 -2 21 -18 12 -19 39 0 32 10 -4 13 -2
8 5 -4 7 -3 12 3 12 5 0 13 -4 16 -10 3 -5 16 -10 28 -9 12 0 16 3 9 6 -6 2
-10 9 -6 14 3 5 0 9 -7 9 -8 0 -9 3 0 13 6 8 8 16 5 19 -3 3 3 5 13 5 12 -1
17 4 15 15 -1 9 2 19 8 23 5 3 10 15 10 26 0 10 5 19 10 19 6 0 10 16 10 35 0
29 -4 35 -21 35 -14 0 -19 5 -17 18 2 9 12 16 22 15 14 -1 17 5 14 28 -3 17
-1 32 3 35 5 2 5 15 0 27 -4 12 -6 28 -4 34 7 20 -25 27 -42 9 -24 -24 -47
-20 -43 7 2 18 8 22 36 19 17 -1 32 2 32 8 0 5 -7 7 -15 4 -8 -4 -15 -2 -15 4
0 5 -6 9 -12 8 -7 0 -13 4 -13 9 0 6 4 9 8 7 5 -1 6 2 2 8 -3 6 -10 8 -15 5
-5 -3 -11 -1 -15 5 -10 16 -38 12 -31 -5z m-116 -37 c-3 -7 -9 -13 -14 -13 -5
-1 -19 -6 -31 -13 -35 -19 -27 -7 10 17 38 24 40 25 35 9z m-58 -448 c0 -5 -4
-10 -10 -10 -5 0 -10 5 -10 10 0 6 5 10 10 10 6 0 10 -4 10 -10z m20 -94 c0
-2 -7 -7 -16 -10 -8 -3 -12 -2 -9 4 6 10 25 14 25 6z m10 -70 c0 -2 -6 -9 -13
-15 -10 -8 -14 -7 -14 4 0 8 6 15 14 15 7 0 13 -2 13 -4z m-150 -105 c0 -11
-9 -21 -22 -24 -20 -5 -21 -4 -7 6 9 7 14 18 12 25 -3 6 0 12 6 12 6 0 11 -8
11 -19z m-92 -281 c-15 -23 -28 -26 -28 -7 0 17 10 27 27 27 11 0 11 -4 1 -20z"/>
<path d="M6421 6494 c0 -11 3 -14 6 -6 3 7 2 16 -1 19 -3 4 -6 -2 -5 -13z"/>
<path d="M10920 6440 c-13 -8 -12 -10 3 -10 9 0 17 5 17 10 0 12 -1 12 -20 0z"/>
<path d="M6450 6420 c0 -5 5 -10 10 -10 6 0 10 5 10 10 0 6 -4 10 -10 10 -5 0
-10 -4 -10 -10z"/>
<path d="M11060 6426 c0 -2 7 -6 15 -10 8 -3 15 -1 15 4 0 6 -7 10 -15 10 -8
0 -15 -2 -15 -4z"/>
<path d="M10960 6390 c0 -5 5 -10 10 -10 6 0 10 5 10 10 0 6 -4 10 -10 10 -5
0 -10 -4 -10 -10z"/>
<path d="M7139 6299 c-14 -9 -11 -10 24 -13 6 -1 15 -5 19 -11 5 -6 8 -5 8 2
0 18 -34 33 -51 22z"/>
<path d="M7239 6289 l-24 -20 28 17 c15 9 27 18 27 20 0 8 -8 4 -31 -17z"/>
<path d="M7080 6235 c0 -7 30 -13 34 -7 3 4 -4 9 -15 9 -10 1 -19 0 -19 -2z"/>
<path d="M7124 6214 c-18 -14 -18 -15 4 -4 12 6 22 13 22 15 0 8 -5 6 -26 -11z"/>
<path d="M7006 6138 c3 -5 10 -6 15 -3 13 9 11 12 -6 12 -8 0 -12 -4 -9 -9z"/>
<path d="M6890 6005 c0 -14 4 -25 9 -25 5 0 8 11 7 25 -1 33 -16 33 -16 0z"/>
<path d="M6962 5975 c0 -16 2 -22 5 -12 2 9 2 23 0 30 -3 6 -5 -1 -5 -18z"/>
<path d="M6981 5834 c0 -11 3 -14 6 -6 3 7 2 16 -1 19 -3 4 -6 -2 -5 -13z"/>
<path d="M6805 5790 c3 -5 8 -10 11 -10 2 0 4 5 4 10 0 6 -5 10 -11 10 -5 0
-7 -4 -4 -10z"/>
<path d="M6665 5671 c-10 -18 17 -23 33 -7 15 15 15 16 -5 16 -12 0 -24 -4
-28 -9z"/>
<path d="M10983 5150 c0 -30 2 -43 4 -27 2 15 2 39 0 55 -2 15 -4 2 -4 -28z"/>
<path d="M11288 5183 c6 -2 18 -2 25 0 6 3 1 5 -13 5 -14 0 -19 -2 -12 -5z"/>
<path d="M11095 5140 c-18 -20 -17 -20 8 -20 20 0 25 5 24 20 -1 11 -4 20 -8
20 -3 0 -14 -9 -24 -20z"/>
<path d="M11532 5135 c0 -16 2 -22 5 -12 2 9 2 23 0 30 -3 6 -5 -1 -5 -18z"/>
<path d="M10987 4971 c-4 -17 -3 -21 5 -13 5 5 8 16 6 23 -3 8 -7 3 -11 -10z"/>
<path d="M10976 4928 c3 -5 10 -6 15 -3 13 9 11 12 -6 12 -8 0 -12 -4 -9 -9z"/>
<path d="M10905 4907 c-13 -10 -15 -16 -6 -21 7 -5 15 -5 18 -2 4 3 0 6 -7 6
-9 0 -7 5 6 15 10 8 16 15 13 15 -3 0 -13 -6 -24 -13z"/>
<path d="M7825 3000 c3 -5 8 -10 11 -10 2 0 4 5 4 10 0 6 -5 10 -11 10 -5 0
-7 -4 -4 -10z"/>
<path d="M7627 2921 c-44 -29 -45 -35 -1 -13 23 12 45 18 49 14 5 -4 5 -1 1 6
-9 15 -15 15 -49 -7z"/>
<path d="M7899 2503 c-13 -16 -12 -17 4 -4 16 13 21 21 13 21 -2 0 -10 -8 -17
-17z"/>
<path d="M1110 1706 c0 -2 7 -9 15 -16 9 -7 15 -8 15 -2 0 5 -7 12 -15 16 -8
3 -15 4 -15 2z"/>
<path d="M1167 1640 c33 -35 30 -34 30 -15 0 8 -3 13 -5 10 -3 -3 -11 4 -19
15 -8 11 -19 20 -24 20 -6 0 2 -13 18 -30z"/>
<path d="M60 1060 c0 -5 7 -7 15 -4 8 4 15 8 15 10 0 2 -7 4 -15 4 -8 0 -15
-4 -15 -10z"/>
<path d="M2225 1031 c-6 -11 9 -23 19 -14 9 9 7 23 -3 23 -6 0 -12 -4 -16 -9z"/>
<path d="M280 1020 c0 -5 7 -7 15 -4 8 4 15 8 15 10 0 2 -7 4 -15 4 -8 0 -15
-4 -15 -10z"/>
<path d="M192 854 c-11 -12 -8 -14 13 -14 26 0 34 14 12 23 -6 2 -18 -2 -25
-9z"/>
<path d="M386 855 c4 -8 8 -15 10 -15 2 0 4 7 4 15 0 8 -4 15 -10 15 -5 0 -7
-7 -4 -15z"/>
<path d="M130 813 c11 -17 18 -19 32 -12 23 12 23 18 1 14 -10 -1 -24 3 -32 9
-12 9 -12 8 -1 -11z"/>
<path d="M190 819 c0 -15 18 -19 23 -6 3 8 -1 14 -9 14 -8 0 -14 -4 -14 -8z"/>
<path d="M375 810 c3 -5 8 -10 11 -10 2 0 4 5 4 10 0 6 -5 10 -11 10 -5 0 -7
-4 -4 -10z"/>
<path d="M458 794 c-4 -16 -1 -21 11 -19 9 1 17 10 18 21 3 18 2 17 -6 -1 l-8
-20 -5 20 c-4 19 -4 19 -10 -1z"/>
<path d="M328 793 c7 -3 16 -2 19 1 4 3 -2 6 -13 5 -11 0 -14 -3 -6 -6z"/>
<path d="M645 790 c3 -5 8 -10 11 -10 2 0 4 5 4 10 0 6 -5 10 -11 10 -5 0 -7
-4 -4 -10z"/>
<path d="M805 780 c3 -5 8 -10 11 -10 2 0 4 5 4 10 0 6 -5 10 -11 10 -5 0 -7
-4 -4 -10z"/>
<path d="M1518 543 c7 -3 16 -2 19 1 4 3 -2 6 -13 5 -11 0 -14 -3 -6 -6z"/>
<path d="M1423 510 c6 -8 12 -16 13 -18 1 -1 4 5 6 15 4 13 0 19 -13 19 -14 0
-16 -3 -6 -16z"/>
<path d="M1475 457 c3 -38 28 -77 49 -77 6 0 3 7 -6 14 -10 7 -18 26 -18 42 0
21 -3 25 -9 15 -7 -11 -11 -8 -14 15 -2 16 -3 12 -2 -9z"/>
<path d="M1491 484 c0 -11 3 -14 6 -6 3 7 2 16 -1 19 -3 4 -6 -2 -5 -13z"/>
<path d="M1538 453 c7 -3 16 -2 19 1 4 3 -2 6 -13 5 -11 0 -14 -3 -6 -6z"/>
<path d="M1564 421 l-31 -17 24 -11 c13 -6 25 -7 29 -2 3 5 -2 9 -12 9 -13 0
-11 4 7 20 28 23 25 23 -17 1z"/>
<path d="M1618 408 c6 -6 18 -8 28 -6 14 3 12 5 -9 10 -19 3 -25 2 -19 -4z"/>
<path d="M1650 379 c-12 -8 -10 -9 8 -4 19 5 25 2 29 -15 4 -16 8 -18 14 -9 4
8 1 18 -9 26 -21 15 -23 15 -42 2z"/>
<path d="M1803 372 c0 -12 5 -22 9 -22 11 0 10 12 -2 30 -7 12 -9 10 -7 -8z"/>
<path d="M1760 340 c0 -5 4 -10 9 -10 6 0 13 5 16 10 3 6 -1 10 -9 10 -9 0
-16 -4 -16 -10z"/>
<path d="M2570 311 c0 -6 4 -13 10 -16 6 -3 7 1 4 9 -7 18 -14 21 -14 7z"/>
<path d="M2365 271 c-3 -5 -1 -12 5 -16 5 -3 10 1 10 9 0 18 -6 21 -15 7z"/>
<path d="M12365 20 l-30 -20 38 0 c23 0 36 4 32 10 -4 6 -12 7 -18 3 -7 -4 -6
0 2 10 17 22 13 21 -24 -3z"/>
</g>
</svg>
